<svg xmlns="http://www.w3.org/2000/svg" xmlns:xlink="http://www.w3.org/1999/xlink" version="1.1" x="0px" y="0px" viewBox="0 0 100 100" enable-background="new 0 0 100 100" xml:space="preserve"><path d="M86.526,40.524c-0.27-8.27-2.133-17.99-8.131-25.56C72.198,7.143,62.69,3.059,50.139,2.791  c-0.085-0.011-0.17-0.026-0.258-0.026c-0.18,0-0.352,0.009-0.531,0.01c-0.179-0.002-0.351-0.01-0.531-0.01  c-0.088,0-0.173,0.015-0.258,0.026C36.01,3.059,26.502,7.143,20.304,14.964c-6.036,7.617-7.883,17.411-8.134,25.715  c-1.297,0.607-2.201,1.914-2.201,3.441c0,1.58,0.963,2.935,2.334,3.511c0.382,5.709,1.297,9.74,1.395,10.156  c0.213,0.908,1.022,1.52,1.915,1.52c0.055,0,0.11-0.015,0.166-0.019v3.399c0,1.228,1.005,2.233,2.233,2.233h0.229v3.882  c0,1.228,1.005,2.233,2.233,2.233h0.857c-0.518,2.698-0.131,6.39,3.478,8.917c4.623,3.239,6.328,12.561,6.062,18.147l0.031,0.001  c0.068,0.59,0.551,1.054,1.159,1.054c0.569,0,1.023-0.41,1.137-0.945l0.033,0.002c0.003-0.06,0.002-0.127,0.005-0.188  c0.001-0.019,0.011-0.035,0.011-0.055c0-0.015-0.008-0.027-0.009-0.042c0.22-5.967-1.46-15.978-7.074-19.91  c-3.072-2.152-2.837-5.263-2.4-6.982h2.091c1.228,0,2.233-1.005,2.233-2.233V50.817c0-1.228-1.005-2.233-2.233-2.233h-5.381  c-1.228,0-2.233,1.005-2.233,2.233v2.878h-0.229c-0.369,0-0.712,0.099-1.02,0.259c-0.273-1.734-0.579-4.135-0.749-6.955  c0.814-0.698,1.341-1.722,1.341-2.878c0-1.207-0.573-2.271-1.45-2.968c0.19-7.746,1.812-16.869,7.257-23.741  C28.936,10.412,37.672,6.82,49.35,6.713c11.671,0.107,20.404,3.695,25.949,10.686c5.531,6.973,7.115,16.285,7.263,24.118  c-0.642,0.682-1.042,1.594-1.042,2.603c0,0.958,0.366,1.824,0.951,2.493c-0.16,2.946-0.474,5.46-0.755,7.268  c-0.272-0.119-0.571-0.187-0.886-0.187h-0.229v-2.878c0-1.228-1.005-2.233-2.233-2.233h-5.381c-1.228,0-2.233,1.005-2.233,2.233  v17.984c0,1.228,1.005,2.233,2.233,2.233h5.381c1.228,0,2.233-1.005,2.233-2.233V64.92h0.229c1.228,0,2.233-1.005,2.233-2.233  v-3.383c0.008,0,0.016,0.003,0.024,0.003c0.893,0,1.702-0.612,1.915-1.519c0.097-0.413,1-4.386,1.387-10.028  c1.583-0.462,2.747-1.907,2.747-3.639C89.136,42.439,88.038,41.028,86.526,40.524z"></path></svg>