<svg xmlns="http://www.w3.org/2000/svg" xmlns:xlink="http://www.w3.org/1999/xlink" version="1.1" x="0px" y="0px" viewBox="0 0 90 112.5" enable-background="new 0 0 90 90" xml:space="preserve"><g><path fill="#000000" d="M81.271,38.843l-9.785-3.913c-0.096-0.04-0.201-0.05-0.305-0.031l-17.307,2.979   c-0.156,0.027-0.295,0.117-0.377,0.25l-3.742,5.784h-2.988c-0.781-2.169-2.91-3.969-5.669-4.494   c-0.68-0.129-1.346-0.168-1.996-0.136c-0.025-0.003-0.049-0.013-0.076-0.014c-3.152,0.142-5.703,2.083-6.207,4.721   c-0.146,0.769-0.088,1.542,0.109,2.29l-19.135,0.199c-5.775,0.176-6.666,0.976-6.773,1.735c-0.045,0.308,0.156,0.632,0.463,0.676   c0.033,0.006,0.066,0.008,0.094,0.008c0.268,0,0.492-0.17,0.531-0.447c0.055-0.068,0.686-0.692,5.709-0.847l19.539-0.204   c0.49,0.98,1.258,1.859,2.252,2.545c-0.906,0.201-1.828,0.403-2.742,0.552c-3.156,0.513-6.146-0.052-9.313-0.651l-0.557-0.106   c-3.127-0.584-6.297-0.37-9.363-0.159c-0.621,0.041-1.244,0.085-1.865,0.121c-0.256,0.016-0.578,0.043-0.949,0.076   c-1.705,0.154-5.25,0.472-6.119-0.685c-0.186-0.249-0.537-0.301-0.787-0.113c-0.248,0.187-0.299,0.54-0.111,0.791   c1.242,1.655,4.781,1.341,7.119,1.127c0.354-0.03,0.666-0.059,0.912-0.071c0.627-0.037,1.25-0.081,1.875-0.122   c2.998-0.205,6.096-0.417,9.08,0.143l0.557,0.104c2.352,0.446,4.613,0.872,6.947,0.872c0.902,0,1.818-0.063,2.756-0.215   c1.063-0.173,2.129-0.41,3.162-0.639c2.443-0.545,4.75-1.056,7.225-0.835l2.166-0.071c2.41-0.218,4.716,0.292,7.16,0.837   c1.029,0.228,2.098,0.466,3.16,0.639c3.355,0.543,6.438-0.039,9.705-0.655l0.555-0.104c2.984-0.562,6.084-0.349,9.078-0.146   c0.625,0.043,1.25,0.085,1.875,0.121c0.248,0.016,0.559,0.044,0.916,0.075c2.338,0.21,5.875,0.526,7.119-1.131   c0.186-0.25,0.133-0.601-0.113-0.79c-0.25-0.187-0.602-0.135-0.789,0.114c-0.061,0.082-0.162,0.141-0.252,0.208   c-5.262-2.782-16.768-5.739-21.078-6.79l8.113-3.51l8.311,1.979l0.104,0.712c0.027,0.191,0.148,0.355,0.324,0.435l3.691,1.666   c0.234,0.106,0.508,0.039,0.67-0.161c0.145-0.178,0.162-0.423,0.057-0.62l1.664,0.71c0.121,0.054,0.256,0.06,0.381,0.022   c0.328-0.097,0.67-0.395,0.699-0.843C86.997,42.108,86.356,41.07,81.271,38.843z M40.406,44.226L39.9,46.731   c-0.232,0.292-0.426,0.725-0.521,1.226c-0.086,0.458-0.072,0.889,0.012,1.234c-0.535,0.081-1.066,0.176-1.596,0.281l1.727-9.071   c0.447,0.002,0.902,0.032,1.365,0.122c0.086,0.017,0.168,0.039,0.256,0.059c0,0.001,0,0.001,0,0.001l-0.195,0.955   c-0.264,0.293-0.49,0.754-0.594,1.308C40.253,43.371,40.281,43.862,40.406,44.226z M45.9,46.465   c-0.178,0.925-0.674,1.763-1.438,2.421c-0.029,0.025-0.047,0.061-0.07,0.092l-0.924,0.03c-0.818-0.072-1.631-0.062-2.434-0.003   c0.092-0.207,0.164-0.44,0.211-0.691c0.127-0.675,0.045-1.293-0.182-1.655l0.404-2.003c0.332-0.263,0.625-0.797,0.75-1.453   c0.121-0.632,0.057-1.216-0.137-1.587l0.141-0.699C44.74,41.916,46.331,44.192,45.9,46.465z M82.733,41.089   c-0.234-0.101-0.504-0.031-0.662,0.169c-0.127,0.162-0.154,0.375-0.082,0.557l-1.459-0.657l-0.109-0.786   c-0.033-0.228-0.203-0.415-0.428-0.467l-8.865-2.114c-0.117-0.028-0.242-0.02-0.354,0.031l-9.84,4.257   c-0.223,0.096-0.357,0.325-0.336,0.568c0.021,0.241,0.197,0.441,0.432,0.497c0.156,0.036,14.721,3.423,21.518,6.615   c-1.422,0.209-3.295,0.046-4.4-0.053c-0.371-0.032-0.693-0.063-0.949-0.076c-0.621-0.035-1.242-0.079-1.863-0.12   c-3.066-0.212-6.238-0.428-9.365,0.16l-0.557,0.105c-3.164,0.598-6.154,1.163-9.311,0.648c-1.035-0.167-2.086-0.399-3.102-0.626   c-2.279-0.505-4.633-1.021-7.031-0.884c0.519-0.666,0.878-1.42,1.035-2.237c0.105-0.552,0.109-1.103,0.039-1.64h3.012   c0,0,0,0,0.002,0h2.699c0.271,0,0.508-0.198,0.553-0.467c0.045-0.271-0.109-0.533-0.367-0.626l-1.52-0.542l2.885-4.457l16.91-2.91   l9.617,3.848c2.348,1.027,3.592,1.742,4.252,2.21L82.733,41.089z"/><circle fill="#000000" cx="62.649" cy="47.018" r="0.639"/><path fill="#000000" d="M83.624,52.308c-0.865,1.158-4.41,0.84-6.117,0.687c-0.367-0.033-0.691-0.062-0.949-0.077   c-0.617-0.036-1.24-0.079-1.861-0.121c-3.066-0.209-6.236-0.426-9.365,0.16l-0.557,0.106c-3.164,0.599-6.154,1.164-9.313,0.65   c-1.033-0.167-2.084-0.402-3.102-0.628c-2.418-0.535-4.918-1.091-7.511-0.856c-0.09,0.009-9.168,0.994-12.623,1.553   c-3.158,0.514-6.145-0.052-9.309-0.649l-0.561-0.106c-3.127-0.586-6.299-0.368-9.365-0.159c-0.619,0.041-1.24,0.085-1.861,0.121   c-0.258,0.016-0.584,0.043-0.951,0.077c-1.707,0.152-5.25,0.47-6.117-0.686c-0.186-0.25-0.539-0.302-0.787-0.113   c-0.25,0.188-0.301,0.539-0.113,0.789c1.242,1.656,4.777,1.34,7.117,1.13c0.354-0.03,0.668-0.06,0.916-0.074   c0.625-0.034,1.25-0.079,1.877-0.121c2.994-0.205,6.092-0.416,9.076,0.144l0.559,0.105c2.354,0.444,4.609,0.872,6.943,0.872   c0.904,0,1.82-0.066,2.756-0.216c3.426-0.556,12.473-1.537,12.557-1.545c2.408-0.219,4.714,0.293,7.154,0.835   c1.033,0.23,2.102,0.467,3.164,0.641c3.357,0.544,6.441-0.04,9.703-0.657l0.555-0.104c2.986-0.562,6.084-0.35,9.082-0.145   c0.625,0.042,1.248,0.086,1.875,0.12c0.246,0.016,0.559,0.044,0.912,0.075c2.34,0.21,5.875,0.527,7.119-1.131   c0.189-0.248,0.137-0.602-0.111-0.788C84.163,52.009,83.813,52.061,83.624,52.308z"/></g><text x="0" y="105" fill="#000000" font-size="5px" font-weight="bold" font-family="'Helvetica Neue', Helvetica, Arial-Unicode, Arial, Sans-serif">Created by Gilad Sotil</text><text x="0" y="110" fill="#000000" font-size="5px" font-weight="bold" font-family="'Helvetica Neue', Helvetica, Arial-Unicode, Arial, Sans-serif">from the Noun Project</text></svg>